Patient4_TMGait_0pt4_01_left_01_EMG.mot
version=1
nRows=23
nColumns=33
inDegrees=no
endheader
time	1LAddLong	2LGlutMax	3LGlutMed	4LIliopsoas	5LSemiMemb	6LBicFemLong	7LRecFem	8LVastMed	9LVastLat	10LGasMed	11LTibAnt	12lTibPost	13LPeroneusLong	14LSol	15LExtDigLong	16LFlexDigLong	17RAddLong	18RGlutMax	19RGlutMed	20RIliopsoas	21RSemiMemb	22RBicFemLong	23RRecFem	24RVastMed	25RVastLat	26RGasMed	27RTibAnt	28RTibPost	29RPeroneusLong	30RSol	31RExtDigLong	32RFlexDigLong
1.468	0.008087	0.002289	0.008087	0.012817	-0.009918	0.007935	-0.092773	0.007172	0.15915	-0.049133	0.14847	0.008087	-0.006256	-0.065613	0.036469	0.007019	-0.004425	0.009613	0.80322	-0.089264	0.1088	0.033875	0.16373	0.14374	0.012207	-0.007324	-0.015869	-0.00351	0.71564	0.20584	-0.002441	-0.021362
1.469	0.005341	-0.006866	-0.015259	0.00885	-0.00473	0.015717	-0.096436	-0.002289	0.15656	-0.040894	0.20248	0.006256	-0.011749	-0.064392	0.10834	0.005035	0.001831	0.018921	0.085907	-0.006714	0.11063	-0.017548	-0.051422	-0.011444	0.10223	0.002441	-0.28198	-0.001984	0.84427	0.12772	-0.000916	-0.017853
1.47	0.000458	0.008698	-0.023804	0.017242	-0.00412	-0.004425	-0.11337	0.002594	0.14328	-0.019836	0.13596	0.005188	0.036774	-0.077057	0.11932	0.008545	0.006409	-0.009308	0.039215	-0.047607	0.075073	-0.022736	-0.16602	-0.070038	0.074005	-0.009613	-0.73151	-0.001373	-0.066833	0.1088	-0.003052	-0.016937
1.471	0.000458	0.02655	-0.034637	0.015411	0.00946	-0.001068	-0.10025	-0.003662	0.14771	0.006714	-0.1268	0.005798	0.015411	-0.079956	0.092163	0.005341	0.01297	-0.12848	-0.31662	-0.020599	0.032349	0.002594	-0.039673	-0.056458	0.084076	-0.001068	-0.61996	-0.000916	-0.43259	0.059357	-0.003052	-0.033264
1.472	0.003357	0.029144	-0.035858	0.005341	0.008698	0.021057	-0.13062	0.00351	0.14114	0.010223	-0.001678	0.010681	0.005646	-0.055084	0.15243	0.015869	0.032959	-0.1886	-0.54535	0.023956	0.04715	-0.053406	0.050964	-0.079498	0.040283	-0.001068	-0.35934	-0.001984	0.056305	-0.075226	0.000763	-0.029755
1.473	-0.002594	0.02594	-0.033264	0.005341	0.024414	0.0354	-0.11765	0.005798	0.13519	0.00351	-0.015717	0.004883	0.029755	-0.044403	0.093536	0.011292	0.033722	-0.19867	0.018005	0.020905	0.088196	-0.024109	-0.087891	-0.032043	0.036774	0.007935	-0.18784	-0.005798	-1.1826	-0.083313	-0.001221	-0.018005
1.474	0.006409	0.03067	-0.001526	0.018921	0.029907	-0.005798	-0.1268	-0.002899	0.13916	-0.030212	-0.018463	0.00824	0.032349	-0.049438	0.016785	0.00885	0.038757	-0.17548	-0.20264	0.059357	0.008087	-0.036011	0.096283	-0.090027	0.048981	0.000763	0.30594	-0.00351	-2.3897	0.037994	-0.001831	-0.027924
1.475	0.012817	0.026093	0.02243	0.005646	0.028076	-0.00824	-0.13534	-0.005798	0.13016	-0.046997	-0.02594	0.00351	0.048981	-0.066833	-0.10315	0.013123	0.003357	-0.062408	-0.54382	0.086212	-0.22598	0.003357	0.1471	-0.059052	0.076752	0.001068	0.075226	-0.001678	0.82794	0.010223	-0.000916	-0.037537
1.476	0.005951	0.028534	-0.008545	0.014954	-0.016937	0.010681	-0.13428	-0.001831	0.12604	-0.051727	0.025635	0.005188	0.00351	-0.074768	-0.055542	0.023956	-0.021973	-0.18951	-0.39322	0.02655	-0.10452	0.002136	0.2211	0.028381	0.13397	0.011444	-0.31174	-0.002136	1.3492	-0.10712	-0.001221	-0.031433
1.477	0.006256	0.009766	-0.045166	0.007477	-0.029449	0.032043	-0.14435	-0.00351	0.12802	-0.030518	0.007324	0.009613	-0.066681	-0.038605	0.058289	-0.001984	0.000458	-0.21988	-0.42541	0.041656	0.074463	-0.099487	0.3006	0.001831	0.13382	0.000916	-0.011444	0.002441	0.57053	0.00061	-0.000916	-0.025177
1.478	0.005951	0.046997	0.004578	0.02655	-0.027466	0.053558	-0.12909	-0.00351	0.12466	-0.053711	0.048981	0.006714	-0.037231	-0.091705	0.14832	0.018616	0.023956	-0.11993	-0.35507	-0.055084	0.069275	-0.056458	0.29617	-0.083008	0.074615	-0.011139	0.21622	-0.003967	-0.42191	0.21683	-0.001984	-0.029602
1.479	0.005798	0.086365	0.04715	0.000153	-0.042725	0.03479	-0.12482	-0.00412	0.11337	-0.041199	-0.023193	0.008698	0.022888	-0.11749	-0.047913	0.013885	0.022278	-0.10605	1.2355	-0.13718	0.058136	-0.025635	-0.13458	-0.090637	0.05249	0.008087	0.09552	-0.000916	-0.61233	-0.086212	-0.003662	-0.024109
1.48	-0.006409	0.090942	0.051575	-0.001526	-0.077209	0.01297	-0.13657	-0.004425	0.11749	-0.015106	-0.056458	0.008698	0.048981	-0.087585	-0.077209	0.010834	0.001984	-0.16663	1.0727	-0.10025	0.025482	-0.0354	-0.20233	-0.007935	0.12833	0.045776	-0.081482	-0.000763	0.78461	-0.17822	-0.006714	-0.010223
1.481	-0.009613	0.071869	0.022278	0.019531	-0.010071	-0.014343	-0.12528	0.001984	0.112	-0.00885	-0.007172	0.003204	0.014496	-0.063324	-0.06897	0.015717	-0.00061	-0.10468	1.2529	-0.063324	0.015106	0.008545	-0.025787	0.11429	0.15472	0.037842	-0.19211	-0.006256	0.26154	-0.01358	0.000916	-0.029144
1.482	-0.006714	0.08316	0.007477	0.013428	0.0354	-0.017395	-0.13428	0.000153	0.11139	-0.017395	0.018921	0.003967	-0.009155	-0.080566	-0.024872	0.010223	-0.008392	-0.1059	0.056763	0.20996	0.033875	0.007172	0.004578	0.11429	0.001526	-0.01709	-0.027924	-0.004883	0.47424	0.12253	-0.00824	-0.022888
1.483	-0.000763	0.10178	0.005035	0.019379	0.0177	0.009918	-0.12573	0.00412	0.10086	-0.016022	0.032196	0.011597	-0.037842	-0.053558	0.044708	0.006714	-0.002594	-0.13473	-0.34393	0.26184	0.005798	-0.009766	0.005646	0.019531	-0.36438	-0.045319	0.049896	-0.004883	0.42709	0.080719	-0.00351	-0.031128
1.484	0.002899	0.077515	-0.054626	0.018463	-0.039368	-0.046997	-0.14191	0.007324	0.10223	-0.037537	0.039825	0.00351	-0.06485	-0.036774	0.035706	0.007324	0.006256	-0.15305	-0.14969	0.13412	0.000763	-0.008392	0.12817	0.10361	-0.33188	-0.047607	0.15747	-0.001678	0.08316	0.18646	-0.002289	-0.016785
1.485	0.004883	0.11337	-0.065155	-0.000153	0.014038	-0.049438	-0.14999	-0.002289	0.11215	-0.056458	-0.007019	0.003052	-0.046234	-0.084839	-0.012054	0.00885	0.003052	-0.10757	-0.3122	0.03418	-0.001678	-0.008392	0.26932	0.00946	-0.17105	-0.020447	0.36072	-0.000305	-0.12161	0.072327	-0.007172	-0.020752
1.486	0.012054	0.11566	-0.071259	-0.000153	0.053253	-0.019226	-0.13245	0.002441	0.10742	-0.053864	-0.018311	0.006561	-0.05722	-0.10666	0.083466	0.00885	0.005493	-0.14999	0.07019	-0.032501	-0.010223	-0.015259	0.1178	0.030212	0.11353	-0.015717	0.23163	0.002441	-0.29862	-0.052948	-0.001678	-0.016785
1.487	0.009003	0.13062	-0.06134	0.014191	0.029449	0.006409	-0.12543	0.001984	0.12573	-0.051575	-0.043945	0.007172	-0.009766	-0.11902	0.022125	0.011292	-0.001831	-0.12085	0.40085	-0.080261	0.00061	-0.006714	-0.13382	0.15579	0.23895	-0.00412	0.39063	-0.001068	1.918	-0.15625	-0.002136	-0.021362
1.488	0.010223	0.11643	-0.075836	0.016022	0.0177	0.009918	-0.10956	0.002899	0.11276	-0.0354	-0.036469	0.004578	-0.020294	-0.072632	-0.06897	0.010223	-0.013123	-0.14358	0.090027	0.012665	0.006256	-0.10666	-0.47882	0.070038	0.42694	0.008087	0.4837	-0.001678	1.7751	-0.1648	0.001831	-0.02121
1.489	0.001526	0.13397	-0.10849	0.006409	0.018463	0.006256	-0.10757	-0.000916	0.12116	-0.036316	-0.010681	0.012817	-0.030212	-0.056458	-0.061646	0.015106	0.003204	-0.080261	-0.2269	0.033875	-0.014191	-0.17425	-0.52185	-0.069122	0.62256	0.009918	0.36987	-0.007477	0.016022	-0.15747	-0.002289	-0.019226
1.49	0.004272	0.15045	-0.020294	0.015259	0.00473	0.001373	-0.11322	0.001068	0.11246	-0.038147	0.036926	0.005341	-0.025635	-0.025024	-0.019836	0.015259	0.009003	-0.060577	-0.39719	0.055389	-0.014648	-0.1857	-0.26001	-0.24353	0.52933	0.001831	0.018768	-0.003052	-0.053864	-0.11261	0.000458	-0.027924
